<svg xmlns="http://www.w3.org/2000/svg" width="24" height="24" viewBox="0 0 24 24">
  <g id="Group_11594" data-name="Group 11594" transform="translate(-1143 -295)">
    <rect id="Rectangle_141" data-name="Rectangle 141" width="24" height="24" rx="2" transform="translate(1143 295)" fill="rgba(35,157,224,0.1)"/>
    <path id="property-edit-stroke-rounded" d="M8.174,1.25h0a29.073,29.073,0,0,1,3.53.122,3.664,3.664,0,0,1,2.235.961A3.664,3.664,0,0,1,14.9,4.567a29.073,29.073,0,0,1,.122,3.53v.038a.5.5,0,0,1-1.008,0c0-1.015,0-1.838-.034-2.519H2.292c-.034.681-.034,1.5-.034,2.519A28.878,28.878,0,0,0,2.37,11.57a2.687,2.687,0,0,0,.675,1.657,2.6,2.6,0,0,0,1.565.662,24.083,24.083,0,0,0,3.19.125.5.5,0,0,1,0,1.008,24.791,24.791,0,0,1-3.337-.136,3.584,3.584,0,0,1-2.131-.946A3.664,3.664,0,0,1,1.372,11.7a29.073,29.073,0,0,1-.122-3.53V8.1a29.073,29.073,0,0,1,.122-3.53,3.664,3.664,0,0,1,.961-2.235,3.664,3.664,0,0,1,2.235-.961A30.452,30.452,0,0,1,8.174,1.25Zm5.892,8.108a2.131,2.131,0,0,1,.987.687,2.048,2.048,0,0,1,.523.68,1.569,1.569,0,0,1,.05,1.062,2.865,2.865,0,0,1-.617.858c-.1.1-1.778,1.775-1.877,1.87a4.492,4.492,0,0,1-.721.633,3.157,3.157,0,0,1-1.058.337h-.016c-.181.026-.337.06-.5.094-.106.023-.214.046-.331.067a2.119,2.119,0,0,1-.408.044.76.76,0,0,1-.457-.145.708.708,0,0,1-.316-.5,1.607,1.607,0,0,1,.007-.467c.026-.126.146-.754.167-.874a3.2,3.2,0,0,1,.363-1.145c.039-.052.134-.176.2-.249.084-.091.2-.208.324-.339.166-.167,2.131-2.138,2.285-2.269a2.213,2.213,0,0,1,.238-.182A.9.9,0,0,1,13.2,9.4,1.533,1.533,0,0,1,14.066,9.358Zm-.177-4.75a2.6,2.6,0,0,0-.661-1.564A2.687,2.687,0,0,0,11.57,2.37a28.878,28.878,0,0,0-3.434-.112A28.878,28.878,0,0,0,4.7,2.37a2.683,2.683,0,0,0-1.657.675,2.592,2.592,0,0,0-.662,1.564ZM13.8,10.33a.588.588,0,0,0-.471.144c-.12.1-2.056,2.044-2.219,2.208-.126.129-.316.334-.39.414a2.3,2.3,0,0,0-.224.764l-.155.8c.186-.04.641-.134.842-.164a2.234,2.234,0,0,0,.711-.209,4.014,4.014,0,0,0,.524-.479L14.3,11.932a1.9,1.9,0,0,0,.363-.439.548.548,0,0,0-.009-.366,1.441,1.441,0,0,0-.332-.39A1.227,1.227,0,0,0,13.8,10.33ZM6.624,8.472a.5.5,0,0,1,.5-.5h4.031a.5.5,0,1,1,0,1.008H7.128A.5.5,0,0,1,6.624,8.472Zm0,2.687a.5.5,0,0,1,.5-.5H8.136a.5.5,0,0,1,0,1.008H7.128A.5.5,0,0,1,6.624,11.159ZM3.937,8.472a.5.5,0,0,1,.5-.5h.672a.5.5,0,1,1,0,1.008H4.441A.5.5,0,0,1,3.937,8.472Zm0,2.687a.5.5,0,0,1,.5-.5h.672a.5.5,0,0,1,0,1.008H4.441A.5.5,0,0,1,3.937,11.159Z" transform="translate(1146.789 298.75)" fill="#239de0"/>
  </g>
</svg>
