<svg xmlns="http://www.w3.org/2000/svg" width="171.606" height="36.86" viewBox="0 0 171.606 36.86">
  <g id="Group_429" data-name="Group 429" transform="translate(878.196 -1129.988)">
    <g id="g82" transform="translate(-825.797 1135.918)">
      <path id="path84" d="M80.061,10.944A2.841,2.841,0,0,1,80.3,9.831a3.343,3.343,0,0,1,.693-1.039,3.612,3.612,0,0,1,1.15-.784,3.879,3.879,0,0,1,1.6-.311,3.644,3.644,0,0,1,1.568.311,3.513,3.513,0,0,1,1.1.784,3.267,3.267,0,0,1,.655,1.039,3.049,3.049,0,0,1,.218,1.113Zm9.67,5.18a11.491,11.491,0,0,1-1.861,1.04,7.847,7.847,0,0,1-3.32.6,4.782,4.782,0,0,1-3.266-1.04A3.264,3.264,0,0,1,80.061,14.3H92.246v-.875A13.576,13.576,0,0,0,91.7,9.467a8.765,8.765,0,0,0-1.623-3.1,7.513,7.513,0,0,0-2.645-2.024,8.554,8.554,0,0,0-3.648-.73,8.888,8.888,0,0,0-3.722.748,8.448,8.448,0,0,0-2.773,1.987,8.629,8.629,0,0,0-1.732,2.9,10.052,10.052,0,0,0-.6,3.446,10.543,10.543,0,0,0,.639,3.74,7.937,7.937,0,0,0,1.861,2.9,8.556,8.556,0,0,0,2.973,1.879,10.894,10.894,0,0,0,3.941.675,12.456,12.456,0,0,0,2.917-.311,13.918,13.918,0,0,0,2.208-.711,8.056,8.056,0,0,0,1.512-.821c.391-.28.682-.48.877-.6Zm-58.149.62a6.875,6.875,0,0,1-1.094.639,3.247,3.247,0,0,1-1.386.274,1.787,1.787,0,0,1-1.55-.676,3.2,3.2,0,0,1-.493-1.914V8.317h4.415V4.194H27.059V-.39H21.806V4.194H19.1V8.317h2.708v6.457a12.072,12.072,0,0,0,.328,2.92,5.626,5.626,0,0,0,1.1,2.243A5.165,5.165,0,0,0,25.234,21.4a7.853,7.853,0,0,0,3.065.529,8.5,8.5,0,0,0,5.4-1.97ZM77.063-1.9a6.874,6.874,0,0,0-2.589-1.386,10.333,10.333,0,0,0-2.811-.4,8.074,8.074,0,0,0-2.571.42,6.556,6.556,0,0,0-2.245,1.277A6.291,6.291,0,0,0,65.262.182a7.47,7.47,0,0,0-.6,3.137v.875H61.887V8.317h2.771V21.306h5.216V8.317h4.051V4.194H69.875V3.246a2.752,2.752,0,0,1,.658-1.97,2.3,2.3,0,0,1,1.75-.693A4.252,4.252,0,0,1,73.634.8a4.4,4.4,0,0,1,1.2.62Zm-23.088,23.2h5.253V4.194H53.975Zm-18.31,0H51.672V16.8h-10.5V-3.029H35.665ZM5.655,10.944a2.864,2.864,0,0,1,.237-1.113,3.392,3.392,0,0,1,.693-1.039,3.627,3.627,0,0,1,1.15-.784A3.888,3.888,0,0,1,9.34,7.7a3.635,3.635,0,0,1,1.568.311,3.5,3.5,0,0,1,1.1.784,3.272,3.272,0,0,1,.657,1.039,3.078,3.078,0,0,1,.218,1.113Zm9.668,5.18a11.367,11.367,0,0,1-1.861,1.04,7.842,7.842,0,0,1-3.32.6,4.78,4.78,0,0,1-3.264-1.04A3.259,3.259,0,0,1,5.655,14.3H17.84v-.875a13.623,13.623,0,0,0-.546-3.959,8.789,8.789,0,0,0-1.624-3.1,7.5,7.5,0,0,0-2.645-2.024,8.55,8.55,0,0,0-3.648-.73,8.882,8.882,0,0,0-3.721.748A8.434,8.434,0,0,0,2.883,6.347a8.584,8.584,0,0,0-1.732,2.9,10.019,10.019,0,0,0-.6,3.446,10.512,10.512,0,0,0,.639,3.74,7.916,7.916,0,0,0,1.86,2.9,8.569,8.569,0,0,0,2.973,1.879,10.9,10.9,0,0,0,3.941.675,12.46,12.46,0,0,0,2.918-.311,13.966,13.966,0,0,0,2.208-.711,8.1,8.1,0,0,0,1.512-.821q.584-.42.877-.6Zm-42.284,5.181h5.253l.62-15.8,5.327,9.377h2.846L-7.881,5.4l.693,15.907h5.509L-2.81-3.029H-8.064l-6.2,11.419L-20.613-3.029h-5.218ZM56.6,2.238A2.978,2.978,0,0,1,53.64-.724,2.978,2.978,0,0,1,56.6-3.685,2.927,2.927,0,0,1,59.563-.724,2.978,2.978,0,0,1,56.6,2.238" transform="translate(26.961 3.685)" fill="#231f20"/>
    </g>
    <g id="g86" transform="translate(-858.183 1129.988)">
      <path id="path88" d="M0,8.935A32.531,32.531,0,0,1,6.585,28.612a32.812,32.812,0,0,1-.42,5.239H18.129a1.886,1.886,0,0,0,1.884-1.889V-1.116a1.882,1.882,0,0,0-2.35-1.83A32.592,32.592,0,0,0,0,8.935" transform="translate(0 3.009)" fill="#99d538"/>
    </g>
    <g id="g90" transform="translate(-878.196 1129.988)">
      <path id="path92" d="M10.36,27.573a32.949,32.949,0,0,1-.42-5.239A32.543,32.543,0,0,1,16.524,2.658,32.582,32.582,0,0,0-1.139-9.223a1.881,1.881,0,0,0-2.35,1.829v33.08A1.887,1.887,0,0,0-1.6,27.573Z" transform="translate(3.489 9.285)" fill="#239de0"/>
    </g>
    <g id="g94" transform="translate(-864.767 1141.932)">
      <path id="path96" d="M4.926,0A32.727,32.727,0,0,0-1.239,24.915H11.09a32.812,32.812,0,0,0,.42-5.239A32.531,32.531,0,0,0,4.926,0" transform="translate(1.659)" fill="#1563a9"/>
    </g>
  </g>
</svg>
