<svg xmlns="http://www.w3.org/2000/svg" width="24" height="24" viewBox="0 0 24 24">
  <g id="Group_11593" data-name="Group 11593" transform="translate(-1177 -295)">
    <rect id="Rectangle_142" data-name="Rectangle 142" width="24" height="24" rx="2" transform="translate(1177 295)" fill="rgba(35,157,224,0.1)"/>
    <path id="recycle-02-stroke-rounded" d="M5.505,6.116l.366,2.389a.506.506,0,1,1-1,.152l-.148-.969L3.364,10.033a18.922,18.922,0,0,0-.936,1.724,1.119,1.119,0,0,0-.146.749.987.987,0,0,0,.256.415,1.292,1.292,0,0,0,.784.255c.474.053,1.118.053,2.033.053a.506.506,0,0,1,0,1.012H5.323a21.1,21.1,0,0,1-2.112-.06,2.243,2.243,0,0,1-1.38-.536,2,2,0,0,1-.515-.841A2.066,2.066,0,0,1,1.5,11.356a19.316,19.316,0,0,1,.972-1.8l1.393-2.4-1.037.382a.506.506,0,1,1-.349-.95l2.352-.866a.506.506,0,0,1,.674.4ZM9.117,1.34a2.222,2.222,0,0,1,1.111.9c.307.416.641.993,1.058,1.712L12.6,6.22l.158-.986a.506.506,0,0,1,1,.161l-.384,2.387a.506.506,0,0,1-.678.393l-2.346-.883a.506.506,0,1,1,.357-.946l1.018.383-1.3-2.243C9.991,3.732,9.684,3.2,9.414,2.838s-.446-.488-.587-.529a1.137,1.137,0,0,0-.647,0c-.141.042-.316.163-.587.529s-.577.894-1.013,1.647A.506.506,0,0,1,5.7,3.977l.016-.027c.417-.72.751-1.3,1.058-1.712a2.219,2.219,0,0,1,1.111-.9A2.146,2.146,0,0,1,9.117,1.34Zm5.334,8.069.019.032a19.4,19.4,0,0,1,1.036,1.927,2.057,2.057,0,0,1,.151,1.542,2.017,2.017,0,0,1-.4.656,2.221,2.221,0,0,1-1.449.608,21.415,21.415,0,0,1-2.258.067H9.208l.784.6a.506.506,0,1,1-.616.8L7.409,14.137a.507.507,0,0,1,0-.8l1.968-1.508a.506.506,0,1,1,.616.8l-.784.6h2.3a21.16,21.16,0,0,0,2.174-.061,1.267,1.267,0,0,0,.823-.288.985.985,0,0,0,.2-.324c.051-.137.055-.348-.135-.8a19.171,19.171,0,0,0-1-1.845.506.506,0,1,1,.875-.507Z" transform="translate(1180.789 298.75)" fill="#239de0"/>
  </g>
</svg>
