<svg xmlns="http://www.w3.org/2000/svg" width="22.614" height="22.613" viewBox="0 0 22.614 22.613">
  <g id="wizard_magic_wand_stick_stars_tool" transform="translate(-9.833 -9.782)">
    <g id="Group_354" data-name="Group 354" transform="translate(10.05 10.002)">
      <g id="Group_353" data-name="Group 353" transform="translate(0 0)">
        <path id="Path_227" data-name="Path 227" d="M50.688,10.034a.523.523,0,0,0-.292.339,4.4,4.4,0,0,1-.837,1.8,3.885,3.885,0,0,1-1.966,1.185c-.452.122-.593.235-.593.489,0,.235.141.357.536.452a4.24,4.24,0,0,1,1.769.922,4.137,4.137,0,0,1,1.035,1.844c.122.452.226.583.442.593a.41.41,0,0,0,.433-.329c.028-.1.094-.348.16-.546a3.484,3.484,0,0,1,2.436-2.389c.706-.216.706-.216.781-.4a.289.289,0,0,0,0-.3c-.075-.179-.113-.207-.64-.357a3.565,3.565,0,0,1-2.436-2.06c-.066-.16-.169-.47-.235-.687a1.645,1.645,0,0,0-.188-.47A.471.471,0,0,0,50.688,10.034Zm.292,2.023a4.423,4.423,0,0,0,1.609,1.618,1.121,1.121,0,0,1,.273.179c0,.009-.038.038-.085.056a4.677,4.677,0,0,0-1.082.79,4.884,4.884,0,0,0-.79,1.082c-.019.047-.038.085-.056.085a1.541,1.541,0,0,1-.235-.348,4.161,4.161,0,0,0-1.571-1.533l-.292-.16.273-.141a4.153,4.153,0,0,0,1.684-1.712,1.237,1.237,0,0,1,.113-.207A2.179,2.179,0,0,0,50.979,12.057Z" transform="translate(-43.524 -10.016)" fill="#fff" stroke="#fff" stroke-width="0.4"/>
        <path id="Path_228" data-name="Path 228" d="M194.408,10.021c-.141.056-.226.179-.31.47a2.238,2.238,0,0,1-.611,1.054,2.178,2.178,0,0,1-1.007.555c-.367.113-.48.216-.48.442s.113.339.48.442a2.155,2.155,0,0,1,1.609,1.618c.113.357.216.47.48.461.216,0,.31-.113.414-.47a2.215,2.215,0,0,1,1.618-1.609c.367-.113.48-.216.48-.442s-.113-.339-.48-.442a2.226,2.226,0,0,1-1.007-.555,2.286,2.286,0,0,1-.611-1.054,1.279,1.279,0,0,0-.169-.386A.454.454,0,0,0,194.408,10.021ZM194.7,11.8a3.321,3.321,0,0,0,.659.649l.132.094-.132.094a5.135,5.135,0,0,0-.715.715l-.1.132-.075-.113a5.831,5.831,0,0,0-.762-.762l-.113-.075.132-.1a3.6,3.6,0,0,0,.658-.649.924.924,0,0,1,.151-.179A.8.8,0,0,1,194.7,11.8Z" transform="translate(-174.884 -10.002)" fill="#fff" stroke="#fff" stroke-width="0.4"/>
        <path id="Path_229" data-name="Path 229" d="M25.925,54.713a2.258,2.258,0,0,0-.357.113c-.113.047-2.615,2.521-7.742,7.648-6.388,6.388-7.6,7.61-7.676,7.8a1.454,1.454,0,0,0,0,1.054,5.111,5.111,0,0,0,1.223,1.242,1.374,1.374,0,0,0,.508.1c.621.028-.085.687,8.391-7.8,5.626-5.626,7.639-7.667,7.7-7.8a1.481,1.481,0,0,0-.019-1.007,4.485,4.485,0,0,0-1.223-1.232A1.258,1.258,0,0,0,25.925,54.713Zm.837,1.223c.442.442.508.546.452.753a36.015,36.015,0,0,1-2.653,2.7,5.669,5.669,0,0,1-.649-.611l-.6-.6,1.317-1.308c.715-.715,1.345-1.317,1.373-1.326C26.226,55.456,26.31,55.5,26.762,55.936Zm-3.387,3.452.621.621-5.87,5.87c-3.227,3.227-5.936,5.9-6.021,5.945-.226.1-.376.028-.828-.423-.376-.386-.4-.4-.4-.593v-.2L16.8,64.694c3.255-3.255,5.927-5.917,5.936-5.917S23.037,59.05,23.375,59.389Z" transform="translate(-10.05 -50.489)" fill="#fff" stroke="#fff" stroke-width="0.4"/>
        <path id="Path_230" data-name="Path 230" d="M158.883,127.807c-.141.056-.216.2-.32.583a3.078,3.078,0,0,1-2.324,2.3c-.555.16-.706.357-.527.687.056.1.122.141.386.216a3.246,3.246,0,0,1,1.985,1.289,3.565,3.565,0,0,1,.5,1.11c.122.442.216.555.461.555s.348-.094.423-.386a3.407,3.407,0,0,1,.988-1.787,3.977,3.977,0,0,1,1.646-.809.418.418,0,0,0,.339-.4c0-.245-.141-.357-.593-.489a3.012,3.012,0,0,1-2.1-1.722,4.8,4.8,0,0,1-.245-.658,1.1,1.1,0,0,0-.169-.4A.438.438,0,0,0,158.883,127.807Zm.292,1.891a3.875,3.875,0,0,0,1.289,1.308l.263.16-.32.216a3.687,3.687,0,0,0-1.232,1.27c-.056.1-.113.188-.132.188a2.148,2.148,0,0,1-.169-.263,3.877,3.877,0,0,0-1.11-1.148l-.386-.263.329-.207a3.963,3.963,0,0,0,1.119-1.119,1.374,1.374,0,0,1,.226-.31C159.071,129.529,159.128,129.6,159.175,129.7Z" transform="translate(-141.946 -116.698)" fill="#fff" stroke="#fff" stroke-width="0.4"/>
      </g>
    </g>
  </g>
</svg>
